<mxfile host="app.diagrams.net" modified="2023-05-27T10:13:43.352Z" agent="Mozilla/5.0 (Windows NT 10.0; Win64; x64) AppleWebKit/537.36 (KHTML, like Gecko) Chrome/113.0.0.0 Safari/537.36" etag="5RNAWtGf8OZMv5dV-U-y" version="21.3.3" type="device">
  <diagram name="Page-1" id="bPjZ9xcKArm-dC0nSAHQ">
    <mxGraphModel dx="1290" dy="651" grid="1" gridSize="10" guides="1" tooltips="1" connect="1" arrows="1" fold="1" page="1" pageScale="1" pageWidth="827" pageHeight="1169" math="0" shadow="0">
      <root>
        <mxCell id="0" />
        <mxCell id="1" parent="0" />
        <mxCell id="m9x-pHLQ3kmvbm4poezj-6" style="edgeStyle=orthogonalEdgeStyle;rounded=0;orthogonalLoop=1;jettySize=auto;html=1;entryX=0;entryY=0.5;entryDx=0;entryDy=0;" edge="1" parent="1" source="m9x-pHLQ3kmvbm4poezj-1" target="m9x-pHLQ3kmvbm4poezj-5">
          <mxGeometry relative="1" as="geometry" />
        </mxCell>
        <mxCell id="m9x-pHLQ3kmvbm4poezj-7" value="0" style="edgeLabel;html=1;align=center;verticalAlign=middle;resizable=0;points=[];" vertex="1" connectable="0" parent="m9x-pHLQ3kmvbm4poezj-6">
          <mxGeometry x="0.1571" y="2" relative="1" as="geometry">
            <mxPoint as="offset" />
          </mxGeometry>
        </mxCell>
        <mxCell id="m9x-pHLQ3kmvbm4poezj-1" value="N1" style="ellipse;whiteSpace=wrap;html=1;aspect=fixed;" vertex="1" parent="1">
          <mxGeometry x="60" y="70" width="80" height="80" as="geometry" />
        </mxCell>
        <mxCell id="m9x-pHLQ3kmvbm4poezj-2" value="N5" style="ellipse;whiteSpace=wrap;html=1;aspect=fixed;" vertex="1" parent="1">
          <mxGeometry x="420" y="320" width="80" height="80" as="geometry" />
        </mxCell>
        <mxCell id="m9x-pHLQ3kmvbm4poezj-12" style="edgeStyle=orthogonalEdgeStyle;rounded=0;orthogonalLoop=1;jettySize=auto;html=1;entryX=0.5;entryY=1;entryDx=0;entryDy=0;" edge="1" parent="1" source="m9x-pHLQ3kmvbm4poezj-3" target="m9x-pHLQ3kmvbm4poezj-4">
          <mxGeometry relative="1" as="geometry" />
        </mxCell>
        <mxCell id="m9x-pHLQ3kmvbm4poezj-14" value="0" style="edgeLabel;html=1;align=center;verticalAlign=middle;resizable=0;points=[];" vertex="1" connectable="0" parent="m9x-pHLQ3kmvbm4poezj-12">
          <mxGeometry x="-0.1826" y="-2" relative="1" as="geometry">
            <mxPoint as="offset" />
          </mxGeometry>
        </mxCell>
        <mxCell id="m9x-pHLQ3kmvbm4poezj-3" value="N4" style="ellipse;whiteSpace=wrap;html=1;aspect=fixed;" vertex="1" parent="1">
          <mxGeometry x="60" y="320" width="80" height="80" as="geometry" />
        </mxCell>
        <mxCell id="m9x-pHLQ3kmvbm4poezj-10" style="edgeStyle=orthogonalEdgeStyle;rounded=0;orthogonalLoop=1;jettySize=auto;html=1;entryX=0.5;entryY=0;entryDx=0;entryDy=0;" edge="1" parent="1" source="m9x-pHLQ3kmvbm4poezj-4" target="m9x-pHLQ3kmvbm4poezj-3">
          <mxGeometry relative="1" as="geometry" />
        </mxCell>
        <mxCell id="m9x-pHLQ3kmvbm4poezj-13" value="0" style="edgeLabel;html=1;align=center;verticalAlign=middle;resizable=0;points=[];" vertex="1" connectable="0" parent="m9x-pHLQ3kmvbm4poezj-10">
          <mxGeometry x="-0.5826" y="-4" relative="1" as="geometry">
            <mxPoint as="offset" />
          </mxGeometry>
        </mxCell>
        <mxCell id="m9x-pHLQ3kmvbm4poezj-11" style="edgeStyle=orthogonalEdgeStyle;rounded=0;orthogonalLoop=1;jettySize=auto;html=1;entryX=0.5;entryY=0;entryDx=0;entryDy=0;" edge="1" parent="1" source="m9x-pHLQ3kmvbm4poezj-4" target="m9x-pHLQ3kmvbm4poezj-2">
          <mxGeometry relative="1" as="geometry">
            <Array as="points">
              <mxPoint x="310" y="300" />
              <mxPoint x="460" y="300" />
            </Array>
          </mxGeometry>
        </mxCell>
        <mxCell id="m9x-pHLQ3kmvbm4poezj-15" value="0" style="edgeLabel;html=1;align=center;verticalAlign=middle;resizable=0;points=[];" vertex="1" connectable="0" parent="m9x-pHLQ3kmvbm4poezj-11">
          <mxGeometry x="-0.049" y="-3" relative="1" as="geometry">
            <mxPoint as="offset" />
          </mxGeometry>
        </mxCell>
        <mxCell id="m9x-pHLQ3kmvbm4poezj-4" value="N3" style="ellipse;whiteSpace=wrap;html=1;aspect=fixed;" vertex="1" parent="1">
          <mxGeometry x="240" y="190" width="80" height="80" as="geometry" />
        </mxCell>
        <mxCell id="m9x-pHLQ3kmvbm4poezj-8" style="edgeStyle=orthogonalEdgeStyle;rounded=0;orthogonalLoop=1;jettySize=auto;html=1;entryX=1;entryY=0.5;entryDx=0;entryDy=0;" edge="1" parent="1" source="m9x-pHLQ3kmvbm4poezj-5" target="m9x-pHLQ3kmvbm4poezj-4">
          <mxGeometry relative="1" as="geometry">
            <Array as="points">
              <mxPoint x="460" y="230" />
            </Array>
          </mxGeometry>
        </mxCell>
        <mxCell id="m9x-pHLQ3kmvbm4poezj-9" value="0" style="edgeLabel;html=1;align=center;verticalAlign=middle;resizable=0;points=[];" vertex="1" connectable="0" parent="m9x-pHLQ3kmvbm4poezj-8">
          <mxGeometry x="-0.1182" y="3" relative="1" as="geometry">
            <mxPoint as="offset" />
          </mxGeometry>
        </mxCell>
        <mxCell id="m9x-pHLQ3kmvbm4poezj-5" value="N2" style="ellipse;whiteSpace=wrap;html=1;aspect=fixed;" vertex="1" parent="1">
          <mxGeometry x="420" y="70" width="80" height="80" as="geometry" />
        </mxCell>
      </root>
    </mxGraphModel>
  </diagram>
</mxfile>
